<svg width="115" height="131" viewBox="0 0 115 131" fill="none" xmlns="http://www.w3.org/2000/svg">
<path d="M7 120.183L17.1783 92.8873V84.0563L39.8837 76.0282L50.062 68L66.5039 69.6056L70.4186 74.4225L94.6899 84.0563V96.0986L108 116.169L99.3876 125C93.646 123.394 82.0062 120.183 81.3798 120.183H23.4419L10.1318 125L7 120.183Z" fill="#FDBB70"/>
<path d="M81.3798 120.183C82.0062 120.183 93.646 123.394 99.3876 125L108 116.169L94.6899 96.0986V84.0563L70.4186 74.4225L66.5039 69.6056L50.062 68L39.8837 76.0282L17.1783 84.0563V92.8873L7 120.183L10.1318 125L23.4419 120.183M81.3798 120.183C80.7535 120.183 42.4935 120.183 23.4419 120.183M81.3798 120.183H23.4419" stroke="#FF0909"/>
<path d="M34.1 59.5385V31.0385L25 21.5385L30.6 9.11538L42.5 7.65385L56.5 4L67.7 9.11538L81.7 11.3077L88 21.5385L77.5 31.0385V55.1538V61L34.1 59.5385Z" fill="#FBEAFF"/>
<path d="M34.1 59.5385C34.1 58.9538 34.1 40.2949 34.1 31.0385M34.1 59.5385L77.5 61V55.1538V31.0385L88 21.5385L81.7 11.3077L67.7 9.11538L56.5 4L42.5 7.65385L30.6 9.11538L25 21.5385L34.1 31.0385M34.1 59.5385V31.0385" stroke="#FF0909"/>
<path d="M114.266 62.5504L109.179 62.0842L109.303 59.8625L114.391 60.3287L114.266 62.5504ZM101.411 54.6732L99.0368 54.4556L99.303 49.6949L101.677 49.9125L101.411 54.6732ZM91.2385 62.8328L86.1508 62.3666L86.275 60.1449L91.3627 60.6111L91.2385 62.8328ZM97.6691 75.8634L95.2948 75.6458L95.5611 70.8851L97.9354 71.1027L97.6691 75.8634ZM101.65 69.8281L102.934 65.9183L107.292 65.3406L103.663 62.795L104.211 58.718L100.692 61.0473L96.6663 59.1232L98.0845 63.1012L95.0887 65.9969L99.5136 66.1232L101.65 69.8281ZM102.306 75.6303L98.1108 68.3474L89.4506 68.132L95.3731 62.4341L92.5479 54.6586L100.37 58.4259L107.297 53.8169L106.231 61.834L113.326 66.7908L104.823 67.9655L102.306 75.6303Z" fill="#200035"/>
<path d="M44.9211 37.2H51.9737V21.7H44.9211V37.2ZM30.8158 32.55C28.1123 31.3617 25.9671 29.6438 24.3803 27.3963C22.7934 25.1488 22 22.7075 22 20.0725C22 16.1975 23.5134 12.9167 26.5401 10.23C29.5669 7.54333 33.2842 6.2 37.6921 6.2C38.3974 6.2 39.1173 6.25167 39.852 6.355C40.5866 6.45833 41.3066 6.5875 42.0118 6.7425C43.4811 4.62417 45.3912 2.97083 47.7421 1.7825C50.093 0.594167 52.6789 0 55.5 0C58.3211 0 60.907 0.594167 63.2579 1.7825C65.6088 2.97083 67.5189 4.62417 68.9882 6.7425C69.6934 6.5875 70.3987 6.45833 71.1039 6.355C71.8092 6.25167 72.5439 6.2 73.3079 6.2C77.7158 6.2 81.4331 7.54333 84.4599 10.23C87.4866 12.9167 89 16.1975 89 20.0725C89 22.7075 88.2066 25.1488 86.6197 27.3963C85.0329 29.6438 82.8877 31.3617 80.1842 32.55V49.6H30.8158V32.55ZM59.0263 37.2H66.0789V21.7H59.0263V37.2ZM37.8684 43.4H73.1316V28.7525L77.0105 27.0475C78.5386 26.3758 79.7434 25.4329 80.625 24.2187C81.5066 23.0046 81.9474 21.6483 81.9474 20.15C81.9474 17.98 81.1099 16.1458 79.4349 14.6475C77.7599 13.1492 75.7175 12.4 73.3079 12.4C72.6614 12.4 72.0737 12.4517 71.5447 12.555C71.0158 12.6583 70.4575 12.7875 69.8697 12.9425L65.7263 13.95L62.9934 9.92C62.1706 8.73167 61.098 7.81458 59.7757 7.16875C58.4533 6.52292 57.0281 6.2 55.5 6.2C53.9719 6.2 52.5467 6.52292 51.2243 7.16875C49.902 7.81458 48.8294 8.73167 48.0066 9.92L45.2737 13.95L41.0421 12.9425C40.4544 12.8392 39.8814 12.7229 39.323 12.5937C38.7647 12.4646 38.1917 12.4 37.6039 12.4C35.1943 12.4 33.1667 13.1492 31.5211 14.6475C29.8754 16.1458 29.0526 17.98 29.0526 20.15C29.0526 21.6483 29.4934 23.0046 30.375 24.2187C31.2566 25.4329 32.4614 26.3758 33.9895 27.0475L37.8684 28.7525V43.4ZM30.8158 49.6H37.8684V55.8H73.1316V49.6H80.1842V62H30.8158V49.6Z" fill="#200035"/>
<path d="M96.3682 121.482C97.7977 122.179 99.0591 122.024 100.152 121.018C101.245 120.012 101.414 118.851 100.657 117.536L93.3409 105L88.0432 117.536L96.3682 121.482ZM71.1409 117.071H77.1955L89.3045 89.4464C89.5568 88.8274 89.4937 88.3051 89.1153 87.8795C88.7369 87.4539 88.2955 87.125 87.7909 86.8929L77.7 83.1786C76.9432 82.9464 76.2074 83.0238 75.4926 83.4107C74.7778 83.7976 74.3364 84.3393 74.1682 85.0357L71.1409 117.071ZM33.8045 117.071H39.8591L36.8318 85.0357C36.6636 84.1845 36.2222 83.6042 35.5074 83.2946C34.7926 82.9851 34.0568 82.9464 33.3 83.1786L23.2091 86.8929C22.5364 87.125 22.0528 87.4539 21.7585 87.8795C21.4642 88.3051 21.4432 88.8274 21.6955 89.4464L33.8045 117.071ZM14.6318 121.482L22.9568 117.536L17.6591 105L10.3432 117.536C9.58636 118.851 9.75455 120.012 10.8477 121.018C11.9409 122.024 13.2023 122.179 14.6318 121.482ZM49.95 117.071H61.05L64.8341 77.8393C65.0023 77.1429 64.8131 76.5432 64.2665 76.0402C63.7199 75.5372 63.0682 75.2857 62.3114 75.2857H48.6886C48.0159 75.2857 47.4062 75.5372 46.8597 76.0402C46.3131 76.5432 46.0818 77.1429 46.1659 77.8393L49.95 117.071ZM12.3614 131C8.82955 131 5.88636 129.781 3.53182 127.344C1.17727 124.906 0 122.024 0 118.696C0 117.768 0.147159 116.859 0.441477 115.969C0.735795 115.079 1.09318 114.208 1.51364 113.357L12.6136 93.8571C11.4364 90.7619 11.4784 87.7054 12.7398 84.6875C14.0011 81.6696 16.2295 79.5417 19.425 78.3036L29.5159 74.5893C30.6932 74.2024 31.8705 73.9315 33.0477 73.7768C34.225 73.622 35.4023 73.6607 36.5795 73.8929C37.7568 71.6488 39.3966 69.7723 41.4989 68.2634C43.6011 66.7545 45.9977 66 48.6886 66H62.3114C65.0023 66 67.3989 66.7545 69.5011 68.2634C71.6034 69.7723 73.2432 71.6488 74.4205 73.8929C75.5977 73.7381 76.775 73.7187 77.9523 73.8348C79.1295 73.9509 80.3068 74.2024 81.4841 74.5893L91.575 78.3036C94.9386 79.5417 97.2932 81.6696 98.6386 84.6875C99.9841 87.7054 99.9 90.6845 98.3864 93.625L109.486 113.125C109.991 113.976 110.369 114.866 110.622 115.795C110.874 116.723 111 117.69 111 118.696C111 122.179 109.718 125.1 107.153 127.46C104.588 129.82 101.414 131 97.6295 131C96.7045 131 95.7795 130.903 94.8545 130.71C93.9295 130.516 93.0045 130.226 92.0795 129.839L84.2591 126.357H26.4886L19.425 129.839C18.3318 130.381 17.1756 130.71 15.9562 130.826C14.7369 130.942 13.5386 131 12.3614 131Z" fill="#CC282B"/>
<path d="M94 66.1818L97.5 61.7273L95.75 57.2727L100.417 59.1818L105.083 56L103.917 61.7273L108 64.2727L103.333 66.1818L101 70L98.6667 66.1818H94Z" fill="#FFEAAF" stroke="#FF5309"/>
</svg>
