<svg width="27" height="32" viewBox="0 0 27 32" fill="none" xmlns="http://www.w3.org/2000/svg">
<path d="M9.03107 10.1382L8.37545 10.0773L8.3931 9.77058L9.04873 9.83144L9.03107 10.1382ZM7.37941 9.05967L7.07345 9.03127L7.11128 8.37391L7.41724 8.40231L7.37941 9.05967ZM6.06183 10.193L5.4062 10.1322L5.42385 9.8254L6.07948 9.88625L6.06183 10.193ZM6.88133 11.9874L6.57537 11.959L6.61321 11.3016L6.91917 11.33L6.88133 11.9874ZM7.39908 11.1515L7.56751 10.6109L8.12979 10.5282L7.66376 10.1793L7.73737 9.61609L7.28205 9.94006L6.76438 9.67722L6.9443 10.2254L6.55591 10.6271L7.12632 10.6415L7.39908 11.1515ZM7.47934 11.952L6.94381 10.9495L5.82741 10.9258L6.59521 10.1351L6.23668 9.06374L7.24244 9.57841L8.13895 8.93742L7.99557 10.0448L8.90672 10.7242L7.80948 10.8922L7.47934 11.952Z" fill="#200035"/>
<path d="M13.2285 6H14.325V3.5H13.2285V6ZM11.0355 5.25C10.6152 5.05833 10.2817 4.78125 10.035 4.41875C9.78827 4.05625 9.66492 3.6625 9.66492 3.2375C9.66492 2.6125 9.90021 2.08333 10.3708 1.65C10.8414 1.21667 11.4193 1 12.1046 1C12.2143 1 12.3262 1.00833 12.4404 1.025C12.5546 1.04167 12.6666 1.0625 12.7762 1.0875C13.0046 0.745833 13.3016 0.479167 13.6671 0.2875C14.0326 0.0958333 14.4347 0 14.8733 0C15.3118 0 15.7139 0.0958333 16.0794 0.2875C16.4449 0.479167 16.7419 0.745833 16.9703 1.0875C17.0799 1.0625 17.1896 1.04167 17.2992 1.025C17.4089 1.00833 17.5231 1 17.6419 1C18.3272 1 18.9051 1.21667 19.3757 1.65C19.8463 2.08333 20.0816 2.6125 20.0816 3.2375C20.0816 3.6625 19.9582 4.05625 19.7115 4.41875C19.4648 4.78125 19.1313 5.05833 18.711 5.25V8H11.0355V5.25ZM15.4215 6H16.518V3.5H15.4215V6ZM12.132 7H17.6145V4.6375L18.2175 4.3625C18.4551 4.25417 18.6424 4.10208 18.7795 3.90625C18.9166 3.71042 18.9851 3.49167 18.9851 3.25C18.9851 2.9 18.8549 2.60417 18.5945 2.3625C18.3341 2.12083 18.0165 2 17.6419 2C17.5414 2 17.45 2.00833 17.3678 2.025C17.2855 2.04167 17.1987 2.0625 17.1074 2.0875L16.4632 2.25L16.0383 1.6C15.9103 1.40833 15.7436 1.26042 15.538 1.15625C15.3324 1.05208 15.1108 1 14.8733 1C14.6357 1 14.4141 1.05208 14.2085 1.15625C14.0029 1.26042 13.8362 1.40833 13.7082 1.6L13.2833 2.25L12.6254 2.0875C12.5341 2.07083 12.445 2.05208 12.3582 2.03125C12.2714 2.01042 12.1823 2 12.0909 2C11.7163 2 11.401 2.12083 11.1452 2.3625C10.8893 2.60417 10.7614 2.9 10.7614 3.25C10.7614 3.49167 10.8299 3.71042 10.967 3.90625C11.1041 4.10208 11.2914 4.25417 11.529 4.3625L12.132 4.6375V7ZM11.0355 8H12.132V9H17.6145V8H18.711V10H11.0355V8Z" fill="#200035"/>
<path d="M23.0311 22.1382L22.3754 22.0774L22.3931 21.7706L23.0487 21.8315L23.0311 22.1382ZM21.3794 21.0597L21.0734 21.0313L21.1113 20.3739L21.4172 20.4023L21.3794 21.0597ZM20.0618 22.1931L19.4062 22.1322L19.4239 21.8254L20.0795 21.8863L20.0618 22.1931ZM20.8813 23.9874L20.5754 23.959L20.6132 23.3016L20.9192 23.33L20.8813 23.9874ZM21.3991 23.1515L21.5675 22.6109L22.1298 22.5282L21.6638 22.1793L21.7374 21.6161L21.282 21.9401L20.7644 21.6773L20.9443 22.2254L20.5559 22.6272L21.1263 22.6416L21.3991 23.1515ZM21.4793 23.952L20.9438 22.9496L19.8274 22.9258L20.5952 22.1352L20.2367 21.0638L21.2424 21.5784L22.139 20.9375L21.9956 22.0449L22.9067 22.7242L21.8095 22.8922L21.4793 23.952Z" fill="#200035"/>
<path d="M20.7591 18.6821C20.978 18.7786 21.1712 18.7571 21.3386 18.6179C21.5061 18.4786 21.5318 18.3179 21.4159 18.1357L20.2955 16.4L19.4841 18.1357L20.7591 18.6821ZM16.8955 18.0714H17.8227L19.6773 14.2464C19.7159 14.1607 19.7063 14.0884 19.6483 14.0295C19.5903 13.9705 19.5227 13.925 19.4455 13.8929L17.9 13.3786C17.7841 13.3464 17.6714 13.3571 17.5619 13.4107C17.4525 13.4643 17.3848 13.5393 17.3591 13.6357L16.8955 18.0714ZM11.1773 18.0714H12.1045L11.6409 13.6357C11.6152 13.5179 11.5475 13.4375 11.4381 13.3946C11.3286 13.3518 11.2159 13.3464 11.1 13.3786L9.55455 13.8929C9.45152 13.925 9.37746 13.9705 9.33239 14.0295C9.28731 14.0884 9.28409 14.1607 9.32273 14.2464L11.1773 18.0714ZM8.24091 18.6821L9.51591 18.1357L8.70455 16.4L7.58409 18.1357C7.46818 18.3179 7.49394 18.4786 7.66136 18.6179C7.82879 18.7571 8.02197 18.7786 8.24091 18.6821ZM13.65 18.0714H15.35L15.9295 12.6393C15.9553 12.5429 15.9263 12.4598 15.8426 12.3902C15.7589 12.3205 15.6591 12.2857 15.5432 12.2857H13.4568C13.3538 12.2857 13.2604 12.3205 13.1767 12.3902C13.093 12.4598 13.0576 12.5429 13.0705 12.6393L13.65 18.0714ZM7.89318 20C7.35227 20 6.90152 19.8313 6.54091 19.4938C6.1803 19.1562 6 18.7571 6 18.2964C6 18.1679 6.02254 18.042 6.06761 17.9188C6.11269 17.7955 6.16742 17.675 6.23182 17.5571L7.93182 14.8571C7.75152 14.4286 7.75795 14.0054 7.95114 13.5875C8.14432 13.1696 8.48561 12.875 8.975 12.7036L10.5205 12.1893C10.7008 12.1357 10.8811 12.0982 11.0614 12.0768C11.2417 12.0554 11.422 12.0607 11.6023 12.0929C11.7826 11.7821 12.0337 11.5223 12.3557 11.3134C12.6777 11.1045 13.0447 11 13.4568 11H15.5432C15.9553 11 16.3223 11.1045 16.6443 11.3134C16.9663 11.5223 17.2174 11.7821 17.3977 12.0929C17.578 12.0714 17.7583 12.0688 17.9386 12.0848C18.1189 12.1009 18.2992 12.1357 18.4795 12.1893L20.025 12.7036C20.5402 12.875 20.9008 13.1696 21.1068 13.5875C21.3129 14.0054 21.3 14.4179 21.0682 14.825L22.7682 17.525C22.8455 17.6429 22.9034 17.7661 22.942 17.8946C22.9807 18.0232 23 18.1571 23 18.2964C23 18.7786 22.8036 19.183 22.4108 19.5098C22.018 19.8366 21.5318 20 20.9523 20C20.8106 20 20.6689 19.9866 20.5273 19.9598C20.3856 19.933 20.2439 19.8929 20.1023 19.8393L18.9045 19.3571H10.0568L8.975 19.8393C8.80758 19.9143 8.63049 19.9598 8.44375 19.9759C8.25701 19.992 8.07348 20 7.89318 20Z" fill="#200035"/>
</svg>
